<?xml version="1.0" encoding="utf-8"?>
<!-- Generator: Adobe Illustrator 21.1.0, SVG Export Plug-In . SVG Version: 6.00 Build 0)  -->
<svg version="1.1" id="Layer_1" xmlns="http://www.w3.org/2000/svg" xmlns:xlink="http://www.w3.org/1999/xlink" x="0px" y="0px"
	 viewBox="0 0 12 14" style="enable-background:new 0 0 12 14;" xml:space="preserve">
<style type="text/css">
	.st0{fill:#FFFFFF;}
</style>
<title>Icon</title>
<desc>Created with Sketch.</desc>
<g id="Page-1">
	<g id="Headers-part-2-_x23_1-" transform="translate(-33.000000, -314.000000)">
		<g id="Login" transform="translate(33.000000, 313.000000)">
			<g id="Icon">
				<path id="Shape" class="st0" d="M12,15H0c0,0,0-1.8,0-3c0.7-0.3,2.7-1.2,3.8-1.5c0.1,0,0.1,0,0.1-0.4c0-0.4,0-0.7-0.2-0.9
					C3.6,8.9,3.5,8.4,3.4,7.9C3.2,7.8,3,7.4,2.8,6.7C2.7,6,2.8,5.8,2.9,5.6c0,0,0,0,0-0.1c0-0.1,0-0.9-0.1-1.5c-0.1-0.4,0-1.3,0.6-2
					c0.4-0.4,1.1-1,2.3-1.1h0.7c1.3,0.1,2,0.6,2.4,1.1c0.6,0.7,0.7,1.6,0.6,2C9.3,4.6,9.2,5.4,9.3,5.5c0,0,0,0,0,0.1
					c0.1,0.2,0.1,0.4,0,1.1C9.2,7.4,8.9,7.8,8.8,7.9C8.7,8.4,8.5,8.9,8.4,9.2c-0.1,0.3-0.3,0.6-0.3,0.9c0,0.4,0,0.4,0.1,0.4
					C9.4,10.8,12,12,12,12V15L12,15z"/>
			</g>
		</g>
	</g>
</g>
</svg>
