<?xml version="1.0" encoding="utf-8"?>
<!-- Generator: Adobe Illustrator 21.1.0, SVG Export Plug-In . SVG Version: 6.00 Build 0)  -->
<svg version="1.1" id="Layer_1" xmlns="http://www.w3.org/2000/svg" xmlns:xlink="http://www.w3.org/1999/xlink" x="0px" y="0px"
	 viewBox="0 0 14 14" style="enable-background:new 0 0 14 14;" xml:space="preserve">
<style type="text/css">
	.st0{fill:#FFC80A;}
</style>
<title>Shape</title>
<desc>Created with Sketch.</desc>
<g id="Page-1">
	<g id="Headers-part-2-_x23_1-" transform="translate(-34.000000, -31.000000)">
		<g id="Head" transform="translate(34.000000, 20.000000)">
			<g id="menu-icon" transform="translate(0.000000, 11.000000)">
				<path id="Shape" class="st0" d="M13,8H1C0.5,8,0,7.5,0,7s0.4-1,1-1h12c0.6,0,1,0.4,1,1C14,7.5,13.6,8,13,8L13,8z M13,2L1,2
					C0.5,2,0,1.5,0,1s0.4-1,1-1l12,0c0.6,0,1,0.4,1,1C14,1.5,13.6,2,13,2L13,2z M1,12h12c0.6,0,1,0.4,1,1c0,0.6-0.4,1-1,1H1
					c-0.6,0-1-0.4-1-1C0,12.4,0.5,12,1,12L1,12z"/>
			</g>
		</g>
	</g>
</g>
</svg>
