<?xml version="1.0" encoding="UTF-8"?>
<svg width="14px" height="15px" viewBox="0 0 14 15" version="1.1" xmlns="http://www.w3.org/2000/svg" xmlns:xlink="http://www.w3.org/1999/xlink">
    <!-- Generator: Sketch 46 (44423) - http://www.bohemiancoding.com/sketch -->
    <title>Shape</title>
    <desc>Created with Sketch.</desc>
    <defs></defs>
    <g id="Page-1" stroke="none" stroke-width="1" fill="none" fill-rule="evenodd">
        <g id="Headers-part-2-#1-" transform="translate(-34.000000, -31.000000)" fill="#FFC80A">
            <g id="Head" transform="translate(34.000000, 20.000000)">
                <g id="menu-icon" transform="translate(0.000000, 11.000000)">
                    <path d="M13,8.983 L1.01,8.983 C0.458,8.983 0.011,8.536 0.011,7.984 C0.011,7.432 0.458,6.985 1.009,6.985 L13,6.985 C13.552,6.985 13.998,7.432 13.998,7.984 C13.999,8.536 13.552,8.983 13,8.983 L13,8.983 Z M13,2.987 L1.01,2.988 C0.458,2.988 0.011,2.539 0.011,1.988 C0.011,1.437 0.458,0.989 1.009,0.988 L13,0.989 C13.552,0.988 13.998,1.437 13.998,1.988 C13.999,2.539 13.552,2.987 13,2.987 L13,2.987 Z M1.009,12.981 L13,12.981 C13.552,12.981 13.998,13.429 13.998,13.981 C13.999,14.532 13.552,14.979 13,14.979 L1.01,14.979 C0.458,14.979 0.011,14.532 0.011,13.981 C0.011,13.429 0.458,12.982 1.009,12.981 L1.009,12.981 Z" id="Shape"></path>
                </g>
            </g>
        </g>
    </g>
</svg>