<?xml version="1.0" encoding="utf-8"?>
<!-- Generator: Adobe Illustrator 21.1.0, SVG Export Plug-In . SVG Version: 6.00 Build 0)  -->
<svg version="1.1" id="Layer_1" xmlns="http://www.w3.org/2000/svg" xmlns:xlink="http://www.w3.org/1999/xlink" x="0px" y="0px"
	 viewBox="0 0 14 14" style="enable-background:new 0 0 14 14;" xml:space="preserve">
<style type="text/css">
	.st0{fill:#FFC80A;}
</style>
<title>Shape</title>
<desc>Created with Sketch.</desc>
<g id="Page-1">
	<g id="Headers-part-2-_x23_1-" transform="translate(-1233.000000, -33.000000)">
		<g id="Head" transform="translate(34.000000, 20.000000)">
			<g id="search" transform="translate(1198.000000, 12.000000)">
				<path id="Shape" class="st0" d="M14.7,14.7c-0.4,0.4-1,0.4-1.4,0l-2.9-2.9c-2.3,1.7-5.6,1.5-7.7-0.6c-2.3-2.3-2.3-6.1,0-8.4
					c2.3-2.3,6.1-2.3,8.4,0c2.1,2.1,2.3,5.3,0.6,7.7l2.9,2.9C15.1,13.7,15.1,14.3,14.7,14.7L14.7,14.7z M9.8,4.2
					c-1.6-1.6-4.1-1.6-5.6,0c-1.6,1.6-1.6,4.1,0,5.6c1.6,1.6,4.1,1.6,5.6,0C11.3,8.2,11.3,5.7,9.8,4.2L9.8,4.2z"/>
			</g>
		</g>
	</g>
</g>
</svg>
